<?xml version="1.0" standalone="no"?><!DOCTYPE svg PUBLIC "-//W3C//DTD SVG 1.1//EN" "http://www.w3.org/Graphics/SVG/1.1/DTD/svg11.dtd"><svg t="1539263871153" class="icon" style="" viewBox="0 0 1024 1024" version="1.1" xmlns="http://www.w3.org/2000/svg" p-id="6860" xmlns:xlink="http://www.w3.org/1999/xlink" width="128" height="128"><defs><style type="text/css"></style></defs><path d="M612.9664 264.0384v-0.2048c8.4992 0 16.6912-3.3792 22.6816-9.4208 5.9904-6.0416 9.3184-14.2336 9.2672-22.7328V115.8656c0.0512-8.4992-3.328-16.5888-9.3184-22.6304-5.9904-5.9904-14.1312-9.3696-22.5792-9.3696-8.5504-0.0512-16.7936 3.328-22.8864 9.3696-6.0928 6.0416-9.5232 14.2336-9.5232 22.784v115.8144c0.0512 8.5504 3.4304 16.7424 9.5232 22.784 6.0416 6.0928 14.2848 9.472 22.8352 9.4208zM214.1184 264.0384c8.5504 0.0512 16.7936-3.328 22.8864-9.3696 6.0928-6.0416 9.5232-14.2336 9.5232-22.784V116.0704c0-17.92-14.4896-32.4096-32.4096-32.4096s-32.4096 14.4896-32.4096 32.4096v115.8144c0.0512 8.5504 3.4816 16.7424 9.5232 22.784 6.0928 6.0416 14.336 9.4208 22.8864 9.3696z" fill="" p-id="6861"></path><path d="M812.4416 212.5824c0.0512-13.6192-5.376-26.7264-15.0016-36.4032-9.6256-9.6768-22.7328-15.104-36.352-15.104h-64.3072v57.9584c0 46.2336-37.4784 83.7632-83.7632 83.7632-46.2848 0-83.7632-37.4784-83.7632-83.7632V161.0752H297.8816v57.9584c0 46.2336-37.4784 83.7632-83.7632 83.7632-46.2848 0-83.7632-37.4784-83.7632-83.7632V161.0752H66.048c-13.6192 0-26.7264 5.4272-36.352 15.104-8.7552 8.7552-13.9776 20.3776-14.848 32.6144v166.5536h797.5936V212.5824z" fill="" p-id="6862"></path><path d="M812.4416 375.3472h0.768v12.1856h-0.768z" fill="#FFFFFF" p-id="6863"></path><path d="M14.848 387.5328v446.4128c0.8704 12.2368 6.0928 23.8592 14.848 32.6144 9.6256 9.6768 22.7328 15.0528 36.352 15.0528h535.2448c-33.9456-43.2128-54.1696-97.6896-54.1696-156.928 0-140.4928 113.92-254.4128 254.4128-254.4128 3.6352 0 7.2704 0.1024 10.8544 0.256V387.5328H14.848z m239.9744 166.3488c-0.8704 12.9024-2.1504 32.3072-3.8912 58.112-1.7408 34.4576-3.0208 59.8528-3.8912 76.1856-8.6016-0.8704-17.2544-1.28-25.856-1.28 3.4304-39.5776 5.9904-84.3776 7.7312-134.3488l25.9072 1.3312z m-139.52 189.8496c12.9024-0.8704 25.856-2.56 38.7584-5.1712v-89.1392h-32.3072v-30.976h32.3072v-71.0144h-34.8672v-32.3072h103.3216v32.3072H186.368v71.0144h28.416v30.976H186.368V734.72c4.3008-0.8704 10.3424-1.7408 18.0736-2.56 8.6016-1.7408 14.6432-2.56 18.0736-2.56 0 11.2128 0.4096 21.9648 1.28 32.3072-26.6752 1.7408-61.1328 6.4512-103.3216 14.1824l-5.1712-32.3584z m104.6528 38.7584c19.8144-21.504 32.7168-43.4688 38.7584-65.8944 6.8608-21.504 10.3424-52.5312 10.3424-92.9792V498.3296h32.3072v126.5664c1.7408 79.2064-15.9232 138.6496-52.9408 178.2272-9.5232-7.68-18.9952-14.592-28.4672-20.6336z m209.2544 2.6112H301.312v-28.416h49.1008v-96.8704h-37.4784v-30.976h37.4784v-82.688h-37.4784v-30.976h108.4928v30.976h-38.7584v82.688H418.816v30.976h-36.1472v96.8704h46.4896v28.416z" fill="" p-id="6864"></path><path d="M975.7184 767.3344h-21.9648c-3.584 12.9024-8.704 25.1904-15.2576 36.5568l20.2752 20.3264c13.0048 13.0048 13.0048 34.048 0 47.0528l-11.776 11.776c-13.0048 13.0048-34.048 13.0048-47.0528 0l-20.4288-20.4288c-11.3152 6.4512-23.552 11.4688-36.4032 15.0016v21.2992c0 18.3808-14.8992 33.28-33.28 33.28h-16.64c-18.3808 0-33.28-14.8992-33.28-33.28V877.568c-12.8512-3.5328-25.088-8.4992-36.4032-15.0016l-20.4288 20.4288c-13.0048 13.0048-34.048 13.0048-47.0528 0l-11.776-11.776c-13.0048-13.0048-13.0048-34.048 0-47.0528l20.2752-20.3264c-6.5536-11.3664-11.6736-23.6032-15.2576-36.5568h-21.9648c-18.3808 0-33.28-14.8992-33.28-33.28v-16.64c0-18.3808 14.8992-33.28 33.28-33.28h21.7088c3.4816-12.8 8.3456-24.9856 14.7456-36.2496l-19.5072-19.5584c-13.0048-13.0048-13.0048-34.048 0-47.0528l11.7248-11.776c13.0048-13.0048 34.048-13.0048 47.0528 0l19.1488 19.1488c11.6736-6.8096 24.32-12.1344 37.6832-15.7696v-22.3232c0-18.3808 14.8992-33.28 33.28-33.28h16.64c18.3808 0 33.28 14.8992 33.28 33.28v22.3232c13.3632 3.6352 26.0096 8.96 37.6832 15.7696l19.1488-19.1488c13.0048-13.0048 34.048-13.0048 47.0528 0l11.776 11.776c13.0048 13.0048 13.0048 34.048 0 47.0528l-19.5072 19.5072c6.3488 11.3152 11.264 23.5008 14.7456 36.2496h21.7088c18.3808 0 33.28 14.8992 33.28 33.28v16.64c0 18.4832-14.848 33.3824-33.2288 33.3824z m-173.568-139.008c-54.0672 0-97.8944 43.8272-97.8944 97.8944s43.264 97.8944 97.3824 97.8944S900.096 780.288 900.096 726.2208s-44.3904-97.8944-98.5088-97.8944h0.5632z m-0.6144 138.4448c-22.9888 0-41.6256-18.6368-41.6256-41.6256s18.6368-41.5744 41.6256-41.5744 41.5744 18.6368 41.5744 41.5744c0 23.04-18.5856 41.6256-41.5744 41.6256z" fill="" p-id="6865"></path></svg>