<?xml version="1.0" standalone="no"?><!DOCTYPE svg PUBLIC "-//W3C//DTD SVG 1.1//EN" "http://www.w3.org/Graphics/SVG/1.1/DTD/svg11.dtd"><svg t="1539264862782" class="icon" style="" viewBox="0 0 1024 1024" version="1.1" xmlns="http://www.w3.org/2000/svg" p-id="3702" xmlns:xlink="http://www.w3.org/1999/xlink" width="128" height="128"><defs><style type="text/css"></style></defs><path d="M769.024 380.928c-15.872-9.728-36.864-5.632-47.104 10.24l-218.624 343.552-140.8-112.64c-14.848-11.776-36.352-9.216-48.128 5.12-11.776 14.848-9.216 36.352 5.12 48.128l170.496 136.704c6.144 5.12 13.824 7.68 21.504 7.68 2.048 0 3.584 0 5.632-0.512 9.728-1.536 17.92-7.168 23.04-15.36l239.104-375.296c10.752-16.384 5.632-37.376-10.24-47.616z" p-id="3703"></path><path d="M853.504 136.704h-118.272c-14.848-22.528-38.4-39.424-67.584-44.032C640.512 36.864 580.096 0 512 0S383.488 36.864 356.352 92.16c-29.184 4.608-52.736 21.504-67.584 44.032H170.496c-56.32 0-102.4 46.08-102.4 102.4V921.6c0 56.32 46.08 102.4 102.4 102.4h682.496c56.32 0 102.4-46.08 102.4-102.4V239.104c0.512-56.832-45.568-102.4-101.888-102.4z m-512 47.104c0-13.312 14.848-24.576 32.256-24.576h32.256l7.168-24.576c11.264-38.912 52.224-66.56 98.816-66.56s87.552 27.136 98.816 66.56l7.168 24.576h32.256c17.408 0 32.256 11.264 32.256 24.576v64.512c0 13.312-14.848 24.576-32.256 24.576H373.248c-17.408 0-32.256-11.264-32.256-24.576V183.808zM887.296 921.6c0 18.944-15.36 34.304-34.304 34.304H170.496c-18.944 0-34.304-15.36-34.304-34.304V239.104c0-18.944 15.36-34.304 34.304-34.304h102.4v43.52c0 51.2 45.056 93.184 100.352 93.184H650.24c55.296 0 100.352-41.472 100.352-93.184V204.8h102.4c18.944 0 34.304 15.36 34.304 34.304V921.6z" p-id="3704"></path></svg>