<?xml version="1.0" standalone="no"?><!DOCTYPE svg PUBLIC "-//W3C//DTD SVG 1.1//EN" "http://www.w3.org/Graphics/SVG/1.1/DTD/svg11.dtd"><svg t="1539264900182" class="icon" style="" viewBox="0 0 1024 1024" version="1.1" xmlns="http://www.w3.org/2000/svg" p-id="5547" xmlns:xlink="http://www.w3.org/1999/xlink" width="128" height="128"><defs><style type="text/css"></style></defs><path d="M32.768 579.584l0-83.968 443.392 0 0 83.968-143.36 0 0 88.064 135.168 0 0 79.872-135.168 0 0 107.52q40.96 12.288 147.456 12.288 244.736 6.144 520.192 0l-16.384 44.032-15.36 48.128-291.84 0q-55.296 0-105.472-0.512t-99.328-3.584q-246.784 0-323.584-123.904-9.216 32.768-24.064 69.632t-36.352 81.92q-14.336-20.48-32.256-36.352t-35.328-31.232q32.768-46.08 48.128-119.296t15.36-172.544l83.968 0q0 26.624-0.512 48.64t-2.56 43.52q14.336 29.696 34.304 53.76t41.472 42.496l0-232.448-207.872 0zM492.544 151.552l0-83.968 480.256 0 0 83.968-200.704 0-19.456 92.16 187.392 0 0 396.288-88.064 0 0-316.416-243.712 0 0 316.416-88.064 0 0-396.288 132.096 0 16.384-92.16-176.128 0zM79.872 431.104l0-367.616 360.448 0 0 367.616-360.448 0zM916.48 847.872q-46.08-38.912-91.136-76.288t-97.28-76.288q-23.552 46.08-73.728 84.992t-125.952 74.752l-16.384-15.36q-14.336-20.48-24.576-35.84t-19.456-24.576q69.632-26.624 112.128-55.808t59.904-55.808q21.504-26.624 32.768-69.632t11.264-106.496l0-119.808 88.064 0 0 115.712q0 26.624-3.584 59.904t-11.776 72.192l216.064 151.552zM172.032 283.648l0 71.68 176.128 0 0-71.68-176.128 0zM172.032 143.36l0 71.68 176.128 0 0-71.68-176.128 0z" p-id="5548"></path></svg>